<svg width="242" height="139" viewBox="0 0 242 139" fill="none" xmlns="http://www.w3.org/2000/svg">
<path d="M77.1578 0H47.1578V139H77.1578V0Z" fill="#5800EB"/>
<path d="M194.158 0H164.158V139H194.158V0Z" fill="#5800EB"/>
<path d="M37.1578 18H18.1578V121H37.1578V18Z" fill="#5800EB"/>
<path d="M222.158 18H203.158V121H222.158V18Z" fill="#5800EB"/>
<path d="M155.258 50H86.2578V89H155.258V50Z" fill="#5800EB"/>
<path d="M9.25779 85V52C4.15779 52 2.05779 52.5 1.25779 53.2C0.157793 54.1 -0.142207 57.5 0.0577932 68.4C0.157793 78.2 0.657793 82.9 1.45779 83.8C2.15779 84.5 4.25779 85 5.95779 85H9.25779Z" fill="#5800EB"/>
<path d="M235.758 52H232.258V85C238.258 85 239.558 84.4 240.258 83C240.758 81.9 241.258 75.4 241.258 68.5C241.258 61.6 240.758 55.1 240.258 54C239.558 52.6 238.258 52 235.758 52Z" fill="#5800EB"/>
</svg>
