<svg width="178" height="165" viewBox="0 0 178 165" fill="none" xmlns="http://www.w3.org/2000/svg">
<path fill-rule="evenodd" clip-rule="evenodd" d="M103 0.244811C109.5 0.644811 115 1.64481 120.5 3.44481C124.9 4.94481 130.5 7.24481 133 8.44481C135.5 9.64481 141.1 13.3448 145.5 16.6448C149.9 19.9448 155.7 25.3448 158.4 28.5448C161 31.8448 164.9 37.3448 167.1 40.9448C169.2 44.5448 172.4 51.7448 174.2 56.9448C177.3 66.0448 177.4 67.1448 177.5 81.9448C177.5 95.5448 177.2 98.3448 175.1 104.945C173.8 109.045 171.2 115.645 169.3 119.445C167.4 123.245 164.3 128.445 162.5 130.945C160.7 133.445 156.3 138.145 152.8 141.545C149.4 144.845 144.2 149.045 141.5 150.945C138.8 152.845 133.4 155.745 129.5 157.545C125.6 159.345 119.8 161.445 116.5 162.345C113.2 163.245 106 164.245 100.5 164.545C94.7 164.945 87.4 164.745 83.2 164.045C79.3 163.445 72.7 161.845 68.8 160.445C64.8 159.045 58.1 155.945 54 153.645C49 150.845 43.5 146.445 37.5 140.445C32.6 135.445 27 128.945 25.3 125.945C23.5 122.945 20.8 117.545 19.4 113.945C17.9 110.345 16.1 104.045 15.3 99.9448C14.5 95.8448 13.6 91.4448 13.4 90.2448C13 88.1448 12.5 87.9448 6.5 87.9448C2.8 87.9448 0 87.5448 0 86.9448C0 86.3448 5.09999 77.6448 11.3 67.4448C20.7 51.8448 22.7 49.2448 23.6 50.7448C24.2 51.6448 29 59.6448 34.3 68.4448C39.5 77.2448 44.1 85.2448 44.4 86.2448C44.9 87.7448 44.2 87.9448 38 87.9448C31 87.9448 31 87.9448 31 90.7448C31 92.2448 31.9 96.6448 33.1 100.445C34.3 104.245 36.3 109.445 37.5 111.945C38.8 114.445 41.8 119.145 44.3 122.445C46.7 125.745 51.4 130.545 54.6 133.145C57.9 135.645 63.9 139.345 68 141.245C72.1 143.145 78 145.345 81 146.045C84 146.745 91.2 147.345 97 147.245C105.3 147.245 109.2 146.645 115.5 144.645C120.2 143.145 126.6 140.045 131 137.145C135.1 134.445 141.1 129.345 144.3 125.845C147.5 122.345 151.6 116.545 153.5 112.945C155.3 109.345 157.8 102.845 159 98.4448C160.9 91.8448 161.2 88.5448 160.8 79.4448C160.5 70.7448 159.8 66.8448 157.7 60.9448C156.2 56.8448 153.1 50.5448 150.7 47.0448C148.4 43.5448 143.6 37.9448 140 34.5448C136.4 31.1448 130.3 26.7448 126.5 24.7448C122.6 22.7448 115.9 20.1448 111.5 18.9448C107.1 17.8448 101.5 16.9448 99 16.9448C96 17.0448 93.6 16.3448 91.7 14.9448C89.6 13.3448 89 12.0448 88.8 8.74481C88.7 5.44481 89.2 4.04481 91.1 2.14481C93.4 -0.155189 93.9 -0.255189 103 0.244811ZM96.8 32.0448C97.4 31.9448 99.2 32.5448 100.7 33.3448C102.3 34.0448 103.8 35.7448 104.2 37.0448C104.6 38.3448 105 50.7448 105 89.4448L90.7 103.745C78.8 115.545 75.9 117.945 73.5 117.945C71.8 117.945 69.5 117.245 68.2 116.445C67 115.645 65.8 113.645 65.5 111.945C65.2 110.345 65.6 107.745 66.4 106.245C67.2 104.645 72.6 98.7448 89 82.4448V59.4448C88.9 38.6448 89.1 36.2448 90.7 34.8448C91.7 33.9448 93.2 32.9448 94 32.6448C94.8 32.3448 96.1 32.0448 96.7 32.0448H96.8Z" fill="#5800EB"/>
</svg>
