<svg version="1.1" id="Layer_1" xmlns="http://www.w3.org/2000/svg" xmlns:xlink="http://www.w3.org/1999/xlink" x="0px" y="0px"
	 width="100%" viewBox="0 0 1020 489" enable-background="new 0 0 1020 489" xml:space="preserve">
<path fill="#000B14" opacity="1.000000" stroke="none" 
	d="
M758.000000,490.000000 
	C505.375061,490.000000 253.250153,490.000000 1.062609,490.000000 
	C1.062609,327.068726 1.062609,164.137451 1.062609,1.103079 
	C341.000000,1.103079 681.000000,1.103079 1020.978027,1.103079 
	C1020.978027,164.083282 1020.978027,327.041656 1020.978027,490.000000 
	C933.470642,490.000000 845.985352,490.000000 758.000000,490.000000 
M494.862579,282.636780 
	C497.461029,285.220673 500.159851,287.714447 502.604889,290.436157 
	C503.490112,291.421600 504.253815,292.954834 504.247833,294.234253 
	C504.189606,306.717865 503.786652,319.201050 503.820709,331.683472 
	C503.855011,344.259918 512.876465,353.381805 525.533325,353.667755 
	C536.024292,353.904755 546.527893,353.881714 557.020325,353.681580 
	C570.017395,353.433685 578.829834,344.408295 578.950806,331.441498 
	C579.040955,321.778992 578.769470,312.109283 579.040344,302.453491 
	C579.249268,295.004974 576.998962,288.831573 571.804199,283.455658 
	C570.741943,282.356354 570.329651,279.410492 571.022339,278.011139 
	C590.662231,238.337006 610.447449,198.734451 630.400818,159.217072 
	C631.196228,157.641693 633.842346,156.142136 635.669617,156.088501 
	C645.990662,155.785614 656.327209,156.072815 666.654053,155.896118 
	C679.232300,155.680939 688.312195,147.158875 688.605469,134.665787 
	C688.976746,118.846947 688.982361,103.005928 688.604187,87.187416 
	C688.304382,74.647972 679.175171,66.195396 666.612610,66.116524 
	C651.451721,66.021332 636.289551,66.033516 621.128479,66.110641 
	C607.779907,66.178543 598.891663,75.045280 598.821045,88.356651 
	C598.743286,103.017845 598.955505,117.682022 598.740295,132.340469 
	C598.618286,140.647293 601.454224,147.350067 608.168945,152.178070 
	C610.840942,154.099258 611.231628,155.677750 609.706787,158.706360 
	C590.247314,197.357590 570.914978,236.072998 551.635803,274.814606 
	C550.338745,277.421082 548.722717,278.352936 545.836731,278.356323 
	C537.184326,278.366455 528.531860,278.803619 519.880249,278.779144 
	C518.328796,278.774780 516.449036,277.701660 515.283203,276.551819 
	C502.949890,264.388000 490.657745,252.179550 478.574371,239.769073 
	C477.103943,238.258850 476.275269,235.495834 476.256622,233.303986 
	C476.151764,220.985840 476.820190,208.649277 476.380341,196.349197 
	C475.957733,184.532501 466.978485,176.166641 455.271423,175.932587 
	C444.279816,175.712845 433.276794,175.709763 422.285339,175.932541 
	C410.412384,176.173187 401.436890,185.003326 401.261353,196.937088 
	C401.077820,209.415909 401.613983,221.904266 401.573395,234.387604 
	C401.568146,236.009689 400.402740,238.149658 399.090118,239.162125 
	C389.861572,246.280167 380.510437,253.244598 371.047363,260.047913 
	C369.452759,261.194336 367.134430,261.812653 365.138397,261.841614 
	C354.978577,261.988953 344.813965,261.771545 334.652588,261.860748 
	C326.912567,261.928711 322.443939,266.227356 322.302948,273.874084 
	C322.127869,283.367523 322.126709,292.869202 322.304657,302.362549 
	C322.444977,309.849518 326.782776,314.143646 334.184875,314.246185 
	C343.846313,314.380035 353.512329,314.379852 363.173859,314.249969 
	C370.931732,314.145691 374.989105,309.866791 375.044434,301.960541 
	C375.106201,293.130646 374.871002,284.292755 375.206451,275.475128 
	C375.286255,273.377991 376.603088,270.690155 378.238770,269.397125 
	C386.595825,262.790680 395.358795,256.698547 403.733887,250.113800 
	C407.143158,247.433350 410.019653,246.358643 413.927826,249.043564 
	C415.616333,250.203568 418.010223,250.826401 420.091370,250.845169 
	C432.913452,250.960953 445.738800,250.740494 458.560303,250.880280 
	C460.727783,250.903885 463.487396,251.503220 464.944916,252.905548 
	C474.905212,262.488770 484.590820,272.357483 494.862579,282.636780 
M622.241943,271.275055 
	C610.198425,274.634766 603.960938,282.742798 603.901367,295.296936 
	C603.844482,307.283020 603.828064,319.269989 603.905212,331.255859 
	C603.998657,345.780273 613.426331,355.400146 627.894165,355.579865 
	C640.211548,355.732910 652.534241,355.740601 664.851196,355.571838 
	C678.520935,355.384552 688.274048,346.092865 688.644226,332.508057 
	C688.997803,319.532867 689.007996,306.531708 688.626648,293.557892 
	C688.255554,280.929138 679.080017,271.300415 667.043457,271.028198 
	C652.406006,270.697144 637.752869,271.058167 622.241943,271.275055 
M435.186676,105.499817 
	C435.189758,111.162376 435.064148,116.828529 435.222198,122.486763 
	C435.573944,135.079056 444.153778,143.921051 456.594086,144.171768 
	C468.580109,144.413345 480.578613,144.410934 492.564728,144.171082 
	C504.747681,143.927292 513.531128,135.181839 513.828857,122.907600 
	C514.115479,111.089882 514.135986,99.253265 513.823120,87.436874 
	C513.494568,75.025948 504.329315,66.238251 491.989197,66.110588 
	C480.498749,65.991714 469.005524,66.011040 457.514587,66.101494 
	C444.589355,66.203232 435.568909,75.077927 435.217987,88.012703 
	C435.069000,93.504745 435.188995,99.004082 435.186676,105.499817 
M887.460693,401.604370 
	C887.460693,398.837067 887.460693,396.069763 887.460693,393.030579 
	C881.270874,393.030579 875.778198,393.220886 870.307312,392.957306 
	C867.160706,392.805664 865.591675,393.825714 864.427368,396.800751 
	C860.790527,406.093567 856.834167,415.261566 852.988098,424.472290 
	C850.269043,430.984039 847.527954,437.486603 844.488464,444.727600 
	C843.429749,442.409760 842.705933,440.931946 842.070312,439.417114 
	C836.084778,425.151123 830.160156,410.859192 824.067993,396.638977 
	C823.460754,395.221344 821.913574,393.266937 820.712219,393.200684 
	C814.445068,392.855011 808.148682,393.039429 801.588440,393.039429 
	C801.588440,418.547394 801.588440,443.582733 801.588440,468.687561 
	C807.804443,468.687561 813.702698,468.687561 820.112122,468.687561 
	C820.112122,455.551392 820.112122,442.725708 820.112122,429.900024 
	C825.290833,439.778992 829.512024,449.832367 833.658142,459.916595 
	C837.432129,469.095551 837.398010,468.962891 847.319580,469.091888 
	C850.520813,469.133514 851.897766,468.067352 853.042603,465.118530 
	C857.135803,454.575653 861.566467,444.163452 865.909790,433.718567 
	C866.356201,432.644989 867.073120,431.683868 867.664490,430.670593 
	C868.022156,430.771118 868.379822,430.871643 868.737488,430.972198 
	C868.737488,443.551453 868.737488,456.130707 868.737488,468.721130 
	C875.207275,468.721130 881.122986,468.721130 887.460693,468.721130 
	C887.460693,446.485199 887.460693,424.532410 887.460693,401.604370 
M374.970734,466.240082 
	C374.970734,441.983795 374.970734,417.727539 374.970734,393.031860 
	C368.747375,393.031860 363.114044,393.201172 357.497986,392.963043 
	C354.526276,392.837067 353.121429,393.881104 352.009430,396.623108 
	C346.193665,410.963501 340.169342,425.219391 334.202271,439.498322 
	C333.603973,440.930023 332.902802,442.318695 331.837341,444.615479 
	C330.589996,441.738525 329.790161,439.949341 329.034393,438.141724 
	C323.257202,424.324554 317.536377,410.483429 311.646362,396.714569 
	C311.031128,395.276337 309.485931,393.279633 308.278076,393.211517 
	C302.013489,392.858246 295.718292,393.047180 289.228485,393.047180 
	C289.228485,418.568909 289.228485,443.596436 289.228485,468.814514 
	C295.326202,468.814514 301.108551,468.814514 307.696594,468.814514 
	C307.696594,455.950775 307.696594,443.190704 307.696594,430.430634 
	C312.933594,440.096436 317.009125,449.875153 321.039001,459.672607 
	C324.940613,469.158234 324.920807,469.028778 335.079803,469.090027 
	C338.118103,469.108368 339.373077,468.033691 340.439087,465.308197 
	C344.256927,455.547211 348.373108,445.902893 352.386444,436.218567 
	C353.296539,434.022491 354.246674,431.843018 355.178345,429.655884 
	C355.523621,429.742523 355.868896,429.829193 356.214172,429.915863 
	C356.214172,442.798431 356.214172,455.681000 356.214172,468.981415 
	C362.156586,468.981415 367.615173,469.040283 373.068756,468.902588 
	C373.708649,468.886444 374.321228,467.788025 374.970734,466.240082 
M106.987953,424.434967 
	C106.845810,425.927765 106.644997,427.417633 106.570305,428.913788 
	C105.414894,452.059113 123.415604,470.470337 146.440002,469.866638 
	C164.170654,469.401733 186.179245,453.732056 181.419235,426.812866 
	C167.917923,426.812866 154.355957,426.812866 140.595062,426.812866 
	C140.595062,431.540802 140.595062,435.936279 140.595062,440.979034 
	C147.589828,440.979034 154.279160,440.979034 161.285919,440.979034 
	C160.983154,442.296173 160.942963,442.967163 160.680740,443.535797 
	C157.780212,449.825592 152.259369,452.815247 144.288635,452.456238 
	C136.035339,452.084473 129.223267,447.829346 127.336426,440.169647 
	C126.027367,434.855438 125.816040,428.882812 126.764511,423.494873 
	C128.067963,416.090424 133.141556,411.385864 140.823639,409.703857 
	C148.007584,408.130920 153.985870,409.506073 158.533951,415.608765 
	C159.091736,416.357239 159.993790,417.353455 160.753448,417.368469 
	C167.644577,417.504822 174.539536,417.448364 181.677231,417.448364 
	C176.329437,400.748352 161.450516,391.306366 142.736206,392.030304 
	C125.304657,392.704590 111.113472,405.266815 106.987953,424.434967 
M508.580505,159.050400 
	C504.703583,162.678619 503.029999,167.159180 503.089111,172.450134 
	C503.183868,180.932358 503.054535,189.416992 503.130554,197.899597 
	C503.225800,208.525894 509.796021,215.440536 520.457947,215.757660 
	C529.266052,216.019638 538.096191,216.046051 546.901978,215.746567 
	C557.619019,215.382080 563.962646,208.547318 564.041382,197.757965 
	C564.104492,189.108795 564.142578,180.457596 564.028015,171.809464 
	C563.893127,161.632660 557.228027,154.926376 547.135498,154.802216 
	C538.320801,154.693771 529.480408,154.399185 520.698547,154.945923 
	C516.783813,155.189667 512.984985,157.296036 508.580505,159.050400 
M586.032043,451.517792 
	C588.864807,456.416321 591.627502,461.357788 594.582031,466.181732 
	C595.278137,467.318237 596.591858,468.815979 597.670837,468.857300 
	C604.187744,469.106781 610.718994,468.981415 618.004272,468.981415 
	C611.572083,458.256592 605.683777,448.438568 599.770630,438.579193 
	C600.400208,438.183868 600.792664,437.875275 601.233215,437.669830 
	C612.451904,432.438354 617.569153,424.194855 616.262451,413.436493 
	C615.043335,403.398804 607.459595,395.121063 595.861206,394.067719 
	C583.698853,392.963135 571.358276,393.820648 558.818237,393.820648 
	C558.818237,418.515717 558.818237,443.586853 558.818237,468.656006 
	C565.001343,468.656006 570.904053,468.656006 577.287109,468.656006 
	C577.287109,458.932373 577.287109,449.549316 577.287109,440.166290 
	C577.767883,439.940094 578.248718,439.713928 578.729492,439.487762 
	C581.048645,443.281708 583.367798,447.075684 586.032043,451.517792 
M408.768250,300.220367 
	C405.186676,303.650482 403.684143,307.819946 403.779114,312.792908 
	C403.938141,321.121399 403.744843,329.456116 403.851471,337.786285 
	C403.963440,346.537354 409.938507,353.205658 418.619293,353.570190 
	C427.933014,353.961304 437.288605,353.961700 446.602173,353.569611 
	C455.030884,353.214752 461.118103,346.632019 461.292419,338.198120 
	C461.474854,329.370544 461.463196,320.534058 461.303680,311.705688 
	C461.137604,302.512848 454.648865,296.162323 445.393738,296.031494 
	C437.063904,295.913696 428.706604,295.629456 420.410675,296.172028 
	C416.653961,296.417725 413.016541,298.487915 408.768250,300.220367 
M738.725830,392.994537 
	C736.913452,392.994537 735.101135,392.994537 733.009644,392.994537 
	C724.252563,418.260406 715.560791,443.337616 706.741211,468.783752 
	C713.715637,468.783752 720.136841,468.783752 726.622192,468.783752 
	C727.636597,465.801056 728.830994,463.025452 729.498291,460.128448 
	C730.227600,456.962494 731.820740,455.826263 735.068115,456.058411 
	C739.040771,456.342377 743.049133,456.125854 747.042053,456.125854 
	C757.363037,456.125854 757.283203,456.156921 761.021057,465.778931 
	C761.535339,467.102814 763.253906,468.783295 764.500061,468.856842 
	C770.123535,469.188751 775.777588,469.001770 781.997620,469.001770 
	C773.178467,443.441681 764.518311,418.342529 755.772339,392.994537 
	C750.291016,392.994537 744.981140,392.994537 738.725830,392.994537 
M400.609680,421.479156 
	C402.089386,426.820679 405.505676,430.552673 410.512146,432.669464 
	C414.469696,434.342834 418.612122,435.576691 422.662170,437.034271 
	C426.239014,438.321503 429.949951,439.351135 433.329926,441.038849 
	C436.905060,442.824005 438.471893,446.550781 436.715149,449.886627 
	C435.497223,452.199310 432.243439,454.343292 429.591125,454.809479 
	C424.034851,455.786041 421.789673,453.487061 419.395660,446.360352 
	C412.987915,446.360352 406.573395,446.360352 400.053467,446.360352 
	C399.769501,452.481750 401.582855,457.520599 405.564606,461.692688 
	C417.040100,473.716583 442.506226,472.399719 452.648834,459.309296 
	C460.992371,448.540802 457.580017,433.960083 445.164673,428.434570 
	C440.802338,426.493073 436.028137,425.490204 431.477722,423.953033 
	C428.817932,423.054565 426.100464,422.187958 423.638245,420.876556 
	C420.086914,418.985046 418.682220,415.415894 420.083954,411.967316 
	C420.945404,409.848022 423.722992,407.838470 426.049530,407.136780 
	C429.760132,406.017578 432.853943,407.845673 434.527252,411.526672 
	C435.052338,412.681763 435.465240,413.887848 435.830292,414.817963 
	C442.678833,414.817963 449.121094,414.817963 455.763062,414.817963 
	C455.430389,405.164734 451.709045,397.763367 442.551758,394.877899 
	C436.669586,393.024414 430.135773,391.836304 424.047729,392.312836 
	C408.378784,393.539368 397.305450,403.997650 400.609680,421.479156 
M674.414856,437.522339 
	C677.528748,437.522339 680.642700,437.522339 683.863403,437.522339 
	C683.863403,432.447357 683.863403,427.926422 683.863403,422.895386 
	C675.725281,422.895386 667.988098,422.895386 660.375977,422.895386 
	C660.375977,417.318207 660.375977,412.265808 660.375977,406.847900 
	C669.522217,406.847900 678.277588,406.847900 687.121826,406.847900 
	C687.121826,402.056030 687.121826,397.658569 687.121826,393.357300 
	C671.726929,393.357300 656.676941,393.357300 641.680054,393.357300 
	C641.680054,418.739807 641.680054,443.754089 641.680054,468.823242 
	C657.032471,468.823242 671.976868,468.823242 687.192139,468.823242 
	C687.192139,464.218475 687.192139,459.799042 687.192139,454.835510 
	C678.046753,454.835510 669.151062,454.835510 660.000366,454.835510 
	C660.000366,449.488190 659.985840,444.682251 660.018066,439.876587 
	C660.022278,439.248962 660.266846,438.622955 660.500854,437.522247 
	C664.859070,437.522247 669.151001,437.522247 674.414856,437.522339 
M345.514252,205.121918 
	C350.007629,205.120850 354.501923,205.177490 358.994171,205.106216 
	C367.274475,204.974869 373.019531,199.923752 373.409332,191.714569 
	C373.795593,183.579773 373.790100,175.398605 373.411743,167.263092 
	C373.037415,159.213943 367.463501,154.164932 359.418274,154.027542 
	C351.931519,153.899689 344.439972,153.923782 336.952209,154.015701 
	C328.296906,154.121948 322.616058,159.649841 322.295105,168.330399 
	C322.116852,173.150146 322.504333,177.997101 322.204956,182.804916 
	C321.280518,197.652390 324.463776,206.623306 345.514252,205.121918 
M219.006927,394.059937 
	C212.104446,393.583801 205.201965,393.107666 197.414948,392.570526 
	C198.671173,395.282562 199.307800,396.781952 200.045441,398.229919 
	C206.923599,411.731445 214.023193,425.126160 220.579681,438.781738 
	C222.436859,442.649841 223.223663,447.227783 223.606537,451.559296 
	C224.110428,457.259705 223.730331,463.038269 223.730331,468.841522 
	C230.293930,468.841522 236.098145,468.841522 242.460907,468.841522 
	C242.460907,463.225800 242.680649,457.748566 242.397385,452.297485 
	C242.129135,447.135162 243.330124,442.589630 245.757965,438.012360 
	C252.778976,424.775543 259.456177,411.356262 266.250122,397.999329 
	C266.972992,396.578156 267.575439,395.095734 268.510376,393.030853 
	C262.326630,393.030853 256.866272,393.195343 251.422623,392.964844 
	C248.480103,392.840271 247.044464,393.827850 245.934921,396.593109 
	C242.004105,406.389923 237.776031,416.067474 233.171066,426.946777 
	C228.247620,415.480194 223.806763,405.137573 219.006927,394.059937 
M633.890320,195.653976 
	C633.213501,198.347580 632.072144,201.020737 631.952515,203.738876 
	C631.667053,210.223007 631.786316,216.729553 631.885742,223.224838 
	C632.003296,230.905823 636.984436,236.125870 644.621033,236.345322 
	C651.611633,236.546188 658.616455,236.538391 665.607849,236.352356 
	C673.166626,236.151245 678.097412,231.350647 678.350708,223.824890 
	C678.591553,216.670288 678.600037,209.494293 678.349609,202.340363 
	C678.075745,194.514496 673.106812,189.998016 665.107788,189.915573 
	C658.611694,189.848602 652.110657,190.034103 645.618774,189.856155 
	C640.912720,189.727173 637.177063,191.312241 633.890320,195.653976 
M516.089966,462.410034 
	C516.089966,444.158142 516.089966,425.906219 516.089966,406.989502 
	C523.336243,406.989502 530.039429,406.989502 536.710327,406.989502 
	C536.710327,402.057068 536.710327,397.797974 536.710327,393.321655 
	C516.746582,393.321655 497.051483,393.321655 477.246094,393.321655 
	C477.246094,397.999420 477.246094,402.381134 477.246094,407.241394 
	C483.988556,407.241394 490.402740,407.241394 497.435547,407.241394 
	C497.435547,428.068481 497.435547,448.420258 497.435547,468.660034 
	C503.985107,468.660034 509.896210,468.660034 516.089905,468.660034 
	C516.089905,466.670288 516.089905,465.026672 516.089966,462.410034 
M541.946167,86.031616 
	C536.921692,88.149506 534.634033,92.066589 534.601440,97.385445 
	C534.562805,103.706421 534.439636,110.033455 534.653992,116.347656 
	C534.883972,123.121284 539.699097,127.791908 546.504517,127.955116 
	C552.822205,128.106628 559.149414,128.107742 565.467041,127.953262 
	C572.182556,127.789047 576.880493,123.415916 577.150513,116.796898 
	C577.428162,109.988800 577.395203,103.154732 577.165222,96.343277 
	C576.968567,90.521690 573.642456,85.932678 568.020935,85.546539 
	C559.635620,84.970535 551.163574,85.658920 541.946167,86.031616 
M380.111481,118.854935 
	C376.726898,128.237610 377.614990,137.865707 379.150940,147.331635 
	C379.976593,152.420227 384.106445,155.040680 389.387878,155.107758 
	C395.872467,155.190155 402.362152,155.262833 408.843445,155.097549 
	C415.429321,154.929596 419.696686,150.686493 419.890259,144.057526 
	C420.079468,137.577484 420.371216,131.042267 419.722412,124.621758 
	C419.421448,121.643326 417.611908,118.223351 415.406464,116.154854 
	C410.801086,111.835464 386.788971,112.667259 381.918732,116.768806 
	C381.413910,117.193954 381.008514,117.737167 380.111481,118.854935 
M400.110168,70.531830 
	C400.108704,55.550213 398.609131,54.053101 383.604309,54.052841 
	C383.106171,54.052834 382.608063,54.052841 382.109924,54.052845 
	C366.773682,54.052906 365.098328,55.747631 365.098206,71.261078 
	C365.098083,87.889557 366.239075,89.032883 382.833496,89.032883 
	C399.400330,89.032883 400.109711,88.313316 400.110168,70.531830 
M320.863647,77.716774 
	C317.130096,77.566956 313.110352,77.442871 311.310364,81.390114 
	C310.202698,83.819099 310.062134,86.833984 310.041718,89.589912 
	C309.925415,105.259178 310.456970,105.729210 326.268921,105.693062 
	C335.753693,105.671379 337.851410,103.529068 337.862152,93.853409 
	C337.879944,77.837631 337.757416,77.714859 320.863647,77.716774 
z"/>
<path fill="#2477BB" opacity="1.000000" stroke="none" 
	d="
M494.613770,282.385498 
	C484.590820,272.357483 474.905212,262.488770 464.944916,252.905548 
	C463.487396,251.503220 460.727783,250.903885 458.560303,250.880280 
	C445.738800,250.740494 432.913452,250.960953 420.091370,250.845169 
	C418.010223,250.826401 415.616333,250.203568 413.927826,249.043564 
	C410.019653,246.358643 407.143158,247.433350 403.733887,250.113800 
	C395.358795,256.698547 386.595825,262.790680 378.238770,269.397125 
	C376.603088,270.690155 375.286255,273.377991 375.206451,275.475128 
	C374.871002,284.292755 375.106201,293.130646 375.044434,301.960541 
	C374.989105,309.866791 370.931732,314.145691 363.173859,314.249969 
	C353.512329,314.379852 343.846313,314.380035 334.184875,314.246185 
	C326.782776,314.143646 322.444977,309.849518 322.304657,302.362549 
	C322.126709,292.869202 322.127869,283.367523 322.302948,273.874084 
	C322.443939,266.227356 326.912567,261.928711 334.652588,261.860748 
	C344.813965,261.771545 354.978577,261.988953 365.138397,261.841614 
	C367.134430,261.812653 369.452759,261.194336 371.047363,260.047913 
	C380.510437,253.244598 389.861572,246.280167 399.090118,239.162125 
	C400.402740,238.149658 401.568146,236.009689 401.573395,234.387604 
	C401.613983,221.904266 401.077820,209.415909 401.261353,196.937088 
	C401.436890,185.003326 410.412384,176.173187 422.285339,175.932541 
	C433.276794,175.709763 444.279816,175.712845 455.271423,175.932587 
	C466.978485,176.166641 475.957733,184.532501 476.380341,196.349197 
	C476.820190,208.649277 476.151764,220.985840 476.256622,233.303986 
	C476.275269,235.495834 477.103943,238.258850 478.574371,239.769073 
	C490.657745,252.179550 502.949890,264.388000 515.283203,276.551819 
	C516.449036,277.701660 518.328796,278.774780 519.880249,278.779144 
	C528.531860,278.803619 537.184326,278.366455 545.836731,278.356323 
	C548.722717,278.352936 550.338745,277.421082 551.635803,274.814606 
	C570.914978,236.072998 590.247314,197.357590 609.706787,158.706360 
	C611.231628,155.677750 610.840942,154.099258 608.168945,152.178070 
	C601.454224,147.350067 598.618286,140.647293 598.740295,132.340469 
	C598.955505,117.682022 598.743286,103.017845 598.821045,88.356651 
	C598.891663,75.045280 607.779907,66.178543 621.128479,66.110641 
	C636.289551,66.033516 651.451721,66.021332 666.612610,66.116524 
	C679.175171,66.195396 688.304382,74.647972 688.604187,87.187416 
	C688.982361,103.005928 688.976746,118.846947 688.605469,134.665787 
	C688.312195,147.158875 679.232300,155.680939 666.654053,155.896118 
	C656.327209,156.072815 645.990662,155.785614 635.669617,156.088501 
	C633.842346,156.142136 631.196228,157.641693 630.400818,159.217072 
	C610.447449,198.734451 590.662231,238.337006 571.022339,278.011139 
	C570.329651,279.410492 570.741943,282.356354 571.804199,283.455658 
	C576.998962,288.831573 579.249268,295.004974 579.040344,302.453491 
	C578.769470,312.109283 579.040955,321.778992 578.950806,331.441498 
	C578.829834,344.408295 570.017395,353.433685 557.020325,353.681580 
	C546.527893,353.881714 536.024292,353.904755 525.533325,353.667755 
	C512.876465,353.381805 503.855011,344.259918 503.820709,331.683472 
	C503.786652,319.201050 504.189606,306.717865 504.247833,294.234253 
	C504.253815,292.954834 503.490112,291.421600 502.604889,290.436157 
	C500.159851,287.714447 497.461029,285.220673 494.613770,282.385498 
z"/>
<path fill="#A8AAAD" opacity="1.000000" stroke="none" 
	d="
M622.674194,271.197449 
	C637.752869,271.058167 652.406006,270.697144 667.043457,271.028198 
	C679.080017,271.300415 688.255554,280.929138 688.626648,293.557892 
	C689.007996,306.531708 688.997803,319.532867 688.644226,332.508057 
	C688.274048,346.092865 678.520935,355.384552 664.851196,355.571838 
	C652.534241,355.740601 640.211548,355.732910 627.894165,355.579865 
	C613.426331,355.400146 603.998657,345.780273 603.905212,331.255859 
	C603.828064,319.269989 603.844482,307.283020 603.901367,295.296936 
	C603.960938,282.742798 610.198425,274.634766 622.674194,271.197449 
z"/>
<path fill="#0FBFE8" opacity="1.000000" stroke="none" 
	d="
M435.186707,104.999962 
	C435.188995,99.004082 435.069000,93.504745 435.217987,88.012703 
	C435.568909,75.077927 444.589355,66.203232 457.514587,66.101494 
	C469.005524,66.011040 480.498749,65.991714 491.989197,66.110588 
	C504.329315,66.238251 513.494568,75.025948 513.823120,87.436874 
	C514.135986,99.253265 514.115479,111.089882 513.828857,122.907600 
	C513.531128,135.181839 504.747681,143.927292 492.564728,144.171082 
	C480.578613,144.410934 468.580109,144.413345 456.594086,144.171768 
	C444.153778,143.921051 435.573944,135.079056 435.222198,122.486763 
	C435.064148,116.828529 435.189758,111.162376 435.186707,104.999962 
z"/>
<path fill="#0FBDE7" opacity="1.000000" stroke="none" 
	d="
M887.460693,402.091980 
	C887.460693,424.532410 887.460693,446.485199 887.460693,468.721130 
	C881.122986,468.721130 875.207275,468.721130 868.737488,468.721130 
	C868.737488,456.130707 868.737488,443.551453 868.737488,430.972198 
	C868.379822,430.871643 868.022156,430.771118 867.664490,430.670593 
	C867.073120,431.683868 866.356201,432.644989 865.909790,433.718567 
	C861.566467,444.163452 857.135803,454.575653 853.042603,465.118530 
	C851.897766,468.067352 850.520813,469.133514 847.319580,469.091888 
	C837.398010,468.962891 837.432129,469.095551 833.658142,459.916595 
	C829.512024,449.832367 825.290833,439.778992 820.112122,429.900024 
	C820.112122,442.725708 820.112122,455.551392 820.112122,468.687561 
	C813.702698,468.687561 807.804443,468.687561 801.588440,468.687561 
	C801.588440,443.582733 801.588440,418.547394 801.588440,393.039429 
	C808.148682,393.039429 814.445068,392.855011 820.712219,393.200684 
	C821.913574,393.266937 823.460754,395.221344 824.067993,396.638977 
	C830.160156,410.859192 836.084778,425.151123 842.070312,439.417114 
	C842.705933,440.931946 843.429749,442.409760 844.488464,444.727600 
	C847.527954,437.486603 850.269043,430.984039 852.988098,424.472290 
	C856.834167,415.261566 860.790527,406.093567 864.427368,396.800751 
	C865.591675,393.825714 867.160706,392.805664 870.307312,392.957306 
	C875.778198,393.220886 881.270874,393.030579 887.460693,393.030579 
	C887.460693,396.069763 887.460693,398.837067 887.460693,402.091980 
z"/>
<path fill="#0FBDE7" opacity="1.000000" stroke="none" 
	d="
M374.958618,466.715698 
	C374.321228,467.788025 373.708649,468.886444 373.068756,468.902588 
	C367.615173,469.040283 362.156586,468.981415 356.214172,468.981415 
	C356.214172,455.681000 356.214172,442.798431 356.214172,429.915863 
	C355.868896,429.829193 355.523621,429.742523 355.178345,429.655884 
	C354.246674,431.843018 353.296539,434.022491 352.386444,436.218567 
	C348.373108,445.902893 344.256927,455.547211 340.439087,465.308197 
	C339.373077,468.033691 338.118103,469.108368 335.079803,469.090027 
	C324.920807,469.028778 324.940613,469.158234 321.039001,459.672607 
	C317.009125,449.875153 312.933594,440.096436 307.696594,430.430634 
	C307.696594,443.190704 307.696594,455.950775 307.696594,468.814514 
	C301.108551,468.814514 295.326202,468.814514 289.228485,468.814514 
	C289.228485,443.596436 289.228485,418.568909 289.228485,393.047180 
	C295.718292,393.047180 302.013489,392.858246 308.278076,393.211517 
	C309.485931,393.279633 311.031128,395.276337 311.646362,396.714569 
	C317.536377,410.483429 323.257202,424.324554 329.034393,438.141724 
	C329.790161,439.949341 330.589996,441.738525 331.837341,444.615479 
	C332.902802,442.318695 333.603973,440.930023 334.202271,439.498322 
	C340.169342,425.219391 346.193665,410.963501 352.009430,396.623108 
	C353.121429,393.881104 354.526276,392.837067 357.497986,392.963043 
	C363.114044,393.201172 368.747375,393.031860 374.970734,393.031860 
	C374.970734,417.727539 374.970734,441.983795 374.958618,466.715698 
z"/>
<path fill="#0FBBE4" opacity="1.000000" stroke="none" 
	d="
M107.038864,424.010010 
	C111.113472,405.266815 125.304657,392.704590 142.736206,392.030304 
	C161.450516,391.306366 176.329437,400.748352 181.677231,417.448364 
	C174.539536,417.448364 167.644577,417.504822 160.753448,417.368469 
	C159.993790,417.353455 159.091736,416.357239 158.533951,415.608765 
	C153.985870,409.506073 148.007584,408.130920 140.823639,409.703857 
	C133.141556,411.385864 128.067963,416.090424 126.764511,423.494873 
	C125.816040,428.882812 126.027367,434.855438 127.336426,440.169647 
	C129.223267,447.829346 136.035339,452.084473 144.288635,452.456238 
	C152.259369,452.815247 157.780212,449.825592 160.680740,443.535797 
	C160.942963,442.967163 160.983154,442.296173 161.285919,440.979034 
	C154.279160,440.979034 147.589828,440.979034 140.595062,440.979034 
	C140.595062,435.936279 140.595062,431.540802 140.595062,426.812866 
	C154.355957,426.812866 167.917923,426.812866 181.419235,426.812866 
	C186.179245,453.732056 164.170654,469.401733 146.440002,469.866638 
	C123.415604,470.470337 105.414894,452.059113 106.570305,428.913788 
	C106.644997,427.417633 106.845810,425.927765 107.038864,424.010010 
z"/>
<path fill="#2477BB" opacity="1.000000" stroke="none" 
	d="
M508.857056,158.803711 
	C512.984985,157.296036 516.783813,155.189667 520.698547,154.945923 
	C529.480408,154.399185 538.320801,154.693771 547.135498,154.802216 
	C557.228027,154.926376 563.893127,161.632660 564.028015,171.809464 
	C564.142578,180.457596 564.104492,189.108795 564.041382,197.757965 
	C563.962646,208.547318 557.619019,215.382080 546.901978,215.746567 
	C538.096191,216.046051 529.266052,216.019638 520.457947,215.757660 
	C509.796021,215.440536 503.225800,208.525894 503.130554,197.899597 
	C503.054535,189.416992 503.183868,180.932358 503.089111,172.450134 
	C503.029999,167.159180 504.703583,162.678619 508.857056,158.803711 
z"/>
<path fill="#0FBEE8" opacity="1.000000" stroke="none" 
	d="
M585.859497,451.193726 
	C583.367798,447.075684 581.048645,443.281708 578.729492,439.487762 
	C578.248718,439.713928 577.767883,439.940094 577.287109,440.166290 
	C577.287109,449.549316 577.287109,458.932373 577.287109,468.656006 
	C570.904053,468.656006 565.001343,468.656006 558.818237,468.656006 
	C558.818237,443.586853 558.818237,418.515717 558.818237,393.820648 
	C571.358276,393.820648 583.698853,392.963135 595.861206,394.067719 
	C607.459595,395.121063 615.043335,403.398804 616.262451,413.436493 
	C617.569153,424.194855 612.451904,432.438354 601.233215,437.669830 
	C600.792664,437.875275 600.400208,438.183868 599.770630,438.579193 
	C605.683777,448.438568 611.572083,458.256592 618.004272,468.981415 
	C610.718994,468.981415 604.187744,469.106781 597.670837,468.857300 
	C596.591858,468.815979 595.278137,467.318237 594.582031,466.181732 
	C591.627502,461.357788 588.864807,456.416321 585.859497,451.193726 
M577.221802,424.162689 
	C580.904114,424.500580 584.583069,425.070251 588.269470,425.122772 
	C593.970642,425.204010 596.825378,422.638489 597.322754,417.509186 
	C597.850525,412.065369 594.952637,407.921417 589.549927,407.317413 
	C585.541077,406.869293 581.442017,407.229248 577.097351,407.229248 
	C577.097351,412.989624 577.097351,418.102661 577.221802,424.162689 
z"/>
<path fill="#0FBEE8" opacity="1.000000" stroke="none" 
	d="
M409.046631,299.975403 
	C413.016541,298.487915 416.653961,296.417725 420.410675,296.172028 
	C428.706604,295.629456 437.063904,295.913696 445.393738,296.031494 
	C454.648865,296.162323 461.137604,302.512848 461.303680,311.705688 
	C461.463196,320.534058 461.474854,329.370544 461.292419,338.198120 
	C461.118103,346.632019 455.030884,353.214752 446.602173,353.569611 
	C437.288605,353.961700 427.933014,353.961304 418.619293,353.570190 
	C409.938507,353.205658 403.963440,346.537354 403.851471,337.786285 
	C403.744843,329.456116 403.938141,321.121399 403.779114,312.792908 
	C403.684143,307.819946 405.186676,303.650482 409.046631,299.975403 
z"/>
<path fill="#0FBEE7" opacity="1.000000" stroke="none" 
	d="
M739.198547,392.994537 
	C744.981140,392.994537 750.291016,392.994537 755.772339,392.994537 
	C764.518311,418.342529 773.178467,443.441681 781.997620,469.001770 
	C775.777588,469.001770 770.123535,469.188751 764.500061,468.856842 
	C763.253906,468.783295 761.535339,467.102814 761.021057,465.778931 
	C757.283203,456.156921 757.363037,456.125854 747.042053,456.125854 
	C743.049133,456.125854 739.040771,456.342377 735.068115,456.058411 
	C731.820740,455.826263 730.227600,456.962494 729.498291,460.128448 
	C728.830994,463.025452 727.636597,465.801056 726.622192,468.783752 
	C720.136841,468.783752 713.715637,468.783752 706.741211,468.783752 
	C715.560791,443.337616 724.252563,418.260406 733.009644,392.994537 
	C735.101135,392.994537 736.913452,392.994537 739.198547,392.994537 
M740.707397,442.053131 
	C744.640503,442.053131 748.573669,442.053131 753.033630,442.053131 
	C750.136475,433.280029 747.442566,425.122406 744.314392,415.649872 
	C741.178467,425.086884 738.445679,433.310791 735.609192,441.846741 
	C737.478882,441.939117 738.630066,441.996002 740.707397,442.053131 
z"/>
<path fill="#0FBDE6" opacity="1.000000" stroke="none" 
	d="
M400.482697,421.077698 
	C397.305450,403.997650 408.378784,393.539368 424.047729,392.312836 
	C430.135773,391.836304 436.669586,393.024414 442.551758,394.877899 
	C451.709045,397.763367 455.430389,405.164734 455.763062,414.817963 
	C449.121094,414.817963 442.678833,414.817963 435.830292,414.817963 
	C435.465240,413.887848 435.052338,412.681763 434.527252,411.526672 
	C432.853943,407.845673 429.760132,406.017578 426.049530,407.136780 
	C423.722992,407.838470 420.945404,409.848022 420.083954,411.967316 
	C418.682220,415.415894 420.086914,418.985046 423.638245,420.876556 
	C426.100464,422.187958 428.817932,423.054565 431.477722,423.953033 
	C436.028137,425.490204 440.802338,426.493073 445.164673,428.434570 
	C457.580017,433.960083 460.992371,448.540802 452.648834,459.309296 
	C442.506226,472.399719 417.040100,473.716583 405.564606,461.692688 
	C401.582855,457.520599 399.769501,452.481750 400.053467,446.360352 
	C406.573395,446.360352 412.987915,446.360352 419.395660,446.360352 
	C421.789673,453.487061 424.034851,455.786041 429.591125,454.809479 
	C432.243439,454.343292 435.497223,452.199310 436.715149,449.886627 
	C438.471893,446.550781 436.905060,442.824005 433.329926,441.038849 
	C429.949951,439.351135 426.239014,438.321503 422.662170,437.034271 
	C418.612122,435.576691 414.469696,434.342834 410.512146,432.669464 
	C405.505676,430.552673 402.089386,426.820679 400.482697,421.077698 
z"/>
<path fill="#0FBCE6" opacity="1.000000" stroke="none" 
	d="
M673.928833,437.522278 
	C669.151001,437.522247 664.859070,437.522247 660.500854,437.522247 
	C660.266846,438.622955 660.022278,439.248962 660.018066,439.876587 
	C659.985840,444.682251 660.000366,449.488190 660.000366,454.835510 
	C669.151062,454.835510 678.046753,454.835510 687.192139,454.835510 
	C687.192139,459.799042 687.192139,464.218475 687.192139,468.823242 
	C671.976868,468.823242 657.032471,468.823242 641.680054,468.823242 
	C641.680054,443.754089 641.680054,418.739807 641.680054,393.357300 
	C656.676941,393.357300 671.726929,393.357300 687.121826,393.357300 
	C687.121826,397.658569 687.121826,402.056030 687.121826,406.847900 
	C678.277588,406.847900 669.522217,406.847900 660.375977,406.847900 
	C660.375977,412.265808 660.375977,417.318207 660.375977,422.895386 
	C667.988098,422.895386 675.725281,422.895386 683.863403,422.895386 
	C683.863403,427.926422 683.863403,432.447357 683.863403,437.522339 
	C680.642700,437.522339 677.528748,437.522339 673.928833,437.522278 
z"/>
<path fill="#0FBEE7" opacity="1.000000" stroke="none" 
	d="
M345.018494,205.121918 
	C324.463776,206.623306 321.280518,197.652390 322.204956,182.804916 
	C322.504333,177.997101 322.116852,173.150146 322.295105,168.330399 
	C322.616058,159.649841 328.296906,154.121948 336.952209,154.015701 
	C344.439972,153.923782 351.931519,153.899689 359.418274,154.027542 
	C367.463501,154.164932 373.037415,159.213943 373.411743,167.263092 
	C373.790100,175.398605 373.795593,183.579773 373.409332,191.714569 
	C373.019531,199.923752 367.274475,204.974869 358.994171,205.106216 
	C354.501923,205.177490 350.007629,205.120850 345.018494,205.121918 
z"/>
<path fill="#0FBDE7" opacity="1.000000" stroke="none" 
	d="
M219.186417,394.427429 
	C223.806763,405.137573 228.247620,415.480194 233.171066,426.946777 
	C237.776031,416.067474 242.004105,406.389923 245.934921,396.593109 
	C247.044464,393.827850 248.480103,392.840271 251.422623,392.964844 
	C256.866272,393.195343 262.326630,393.030853 268.510376,393.030853 
	C267.575439,395.095734 266.972992,396.578156 266.250122,397.999329 
	C259.456177,411.356262 252.778976,424.775543 245.757965,438.012360 
	C243.330124,442.589630 242.129135,447.135162 242.397385,452.297485 
	C242.680649,457.748566 242.460907,463.225800 242.460907,468.841522 
	C236.098145,468.841522 230.293930,468.841522 223.730331,468.841522 
	C223.730331,463.038269 224.110428,457.259705 223.606537,451.559296 
	C223.223663,447.227783 222.436859,442.649841 220.579681,438.781738 
	C214.023193,425.126160 206.923599,411.731445 200.045441,398.229919 
	C199.307800,396.781952 198.671173,395.282562 197.414948,392.570526 
	C205.201965,393.107666 212.104446,393.583801 219.186417,394.427429 
z"/>
<path fill="#0FBFE9" opacity="1.000000" stroke="none" 
	d="
M634.097778,195.329941 
	C637.177063,191.312241 640.912720,189.727173 645.618774,189.856155 
	C652.110657,190.034103 658.611694,189.848602 665.107788,189.915573 
	C673.106812,189.998016 678.075745,194.514496 678.349609,202.340363 
	C678.600037,209.494293 678.591553,216.670288 678.350708,223.824890 
	C678.097412,231.350647 673.166626,236.151245 665.607849,236.352356 
	C658.616455,236.538391 651.611633,236.546188 644.621033,236.345322 
	C636.984436,236.125870 632.003296,230.905823 631.885742,223.224838 
	C631.786316,216.729553 631.667053,210.223007 631.952515,203.738876 
	C632.072144,201.020737 633.213501,198.347580 634.097778,195.329941 
z"/>
<path fill="#0FBDE6" opacity="1.000000" stroke="none" 
	d="
M516.089966,462.896545 
	C516.089905,465.026672 516.089905,466.670288 516.089905,468.660034 
	C509.896210,468.660034 503.985107,468.660034 497.435547,468.660034 
	C497.435547,448.420258 497.435547,428.068481 497.435547,407.241394 
	C490.402740,407.241394 483.988556,407.241394 477.246094,407.241394 
	C477.246094,402.381134 477.246094,397.999420 477.246094,393.321655 
	C497.051483,393.321655 516.746582,393.321655 536.710327,393.321655 
	C536.710327,397.797974 536.710327,402.057068 536.710327,406.989502 
	C530.039429,406.989502 523.336243,406.989502 516.089966,406.989502 
	C516.089966,425.906219 516.089966,444.158142 516.089966,462.896545 
z"/>
<path fill="#A8AAAD" opacity="1.000000" stroke="none" 
	d="
M542.337280,85.920486 
	C551.163574,85.658920 559.635620,84.970535 568.020935,85.546539 
	C573.642456,85.932678 576.968567,90.521690 577.165222,96.343277 
	C577.395203,103.154732 577.428162,109.988800 577.150513,116.796898 
	C576.880493,123.415916 572.182556,127.789047 565.467041,127.953262 
	C559.149414,128.107742 552.822205,128.106628 546.504517,127.955116 
	C539.699097,127.791908 534.883972,123.121284 534.653992,116.347656 
	C534.439636,110.033455 534.562805,103.706421 534.601440,97.385445 
	C534.634033,92.066589 536.921692,88.149506 542.337280,85.920486 
z"/>
<path fill="#2477BA" opacity="1.000000" stroke="none" 
	d="
M380.334229,118.540268 
	C381.008514,117.737167 381.413910,117.193954 381.918732,116.768806 
	C386.788971,112.667259 410.801086,111.835464 415.406464,116.154854 
	C417.611908,118.223351 419.421448,121.643326 419.722412,124.621758 
	C420.371216,131.042267 420.079468,137.577484 419.890259,144.057526 
	C419.696686,150.686493 415.429321,154.929596 408.843445,155.097549 
	C402.362152,155.262833 395.872467,155.190155 389.387878,155.107758 
	C384.106445,155.040680 379.976593,152.420227 379.150940,147.331635 
	C377.614990,137.865707 376.726898,128.237610 380.334229,118.540268 
z"/>
<path fill="#00ADEC" opacity="1.000000" stroke="none" 
	d="
M400.110168,71.019859 
	C400.109711,88.313316 399.400330,89.032883 382.833496,89.032883 
	C366.239075,89.032883 365.098083,87.889557 365.098206,71.261078 
	C365.098328,55.747631 366.773682,54.052906 382.109924,54.052845 
	C382.608063,54.052841 383.106171,54.052834 383.604309,54.052841 
	C398.609131,54.053101 400.108704,55.550213 400.110168,71.019859 
z"/>
<path fill="#A6A8AB" opacity="1.000000" stroke="none" 
	d="
M321.310608,77.716476 
	C337.757416,77.714859 337.879944,77.837631 337.862152,93.853409 
	C337.851410,103.529068 335.753693,105.671379 326.268921,105.693062 
	C310.456970,105.729210 309.925415,105.259178 310.041718,89.589912 
	C310.062134,86.833984 310.202698,83.819099 311.310364,81.390114 
	C313.110352,77.442871 317.130096,77.566956 321.310608,77.716476 
z"/>
<path fill="#00101A" opacity="1.000000" stroke="none" 
	d="
M577.159546,423.689209 
	C577.097351,418.102661 577.097351,412.989624 577.097351,407.229248 
	C581.442017,407.229248 585.541077,406.869293 589.549927,407.317413 
	C594.952637,407.921417 597.850525,412.065369 597.322754,417.509186 
	C596.825378,422.638489 593.970642,425.204010 588.269470,425.122772 
	C584.583069,425.070251 580.904114,424.500580 577.159546,423.689209 
z"/>
<path fill="#01121D" opacity="1.000000" stroke="none" 
	d="
M740.244263,442.052979 
	C738.630066,441.996002 737.478882,441.939117 735.609192,441.846741 
	C738.445679,433.310791 741.178467,425.086884 744.314392,415.649872 
	C747.442566,425.122406 750.136475,433.280029 753.033630,442.053131 
	C748.573669,442.053131 744.640503,442.053131 740.244263,442.052979 
z"/>
</svg>