<svg width="383" height="452" viewBox="0 0 383 452" fill="none" xmlns="http://www.w3.org/2000/svg">
<g opacity="0.5">
<path d="M282.08 84.2293L226.012 116.6C223.009 118.325 220.577 116.488 220.577 112.481V63.8441C220.577 59.8365 223.059 55.1589 226.012 53.4467L282.08 21.0884C285.083 19.3513 287.515 21.1876 287.515 25.1952V73.8444C287.49 77.8643 285.083 82.4923 282.08 84.2293Z" fill="#FAFAFA"/>
<path d="M223.853 117.841C223.26 117.846 222.677 117.692 222.165 117.394C220.776 116.6 219.981 114.813 219.981 112.431V63.844C219.981 59.6503 222.562 54.7618 225.714 52.9379L281.782 20.5672C282.382 20.1481 283.085 19.9001 283.815 19.8499C284.545 19.7996 285.275 19.9489 285.926 20.2818C287.316 21.0883 288.11 22.875 288.11 25.2448V73.8939C288.11 78.0752 285.542 82.9761 282.378 84.8L226.322 117.109C225.577 117.566 224.726 117.818 223.853 117.841ZM284.239 21.0635C283.579 21.0853 282.937 21.2823 282.378 21.6342L226.322 53.9678C223.48 55.6055 221.173 60.0349 221.173 63.8936V112.53C221.173 114.416 221.756 115.831 222.761 116.414C223.233 116.635 223.757 116.725 224.276 116.675C224.796 116.625 225.292 116.436 225.714 116.129L281.782 83.7578C284.611 82.12 286.919 77.703 286.919 73.8939V25.1951C286.919 23.3092 286.336 21.8948 285.331 21.3116C284.998 21.1257 284.621 21.0315 284.239 21.0387V21.0635Z" fill="#E0E0E0"/>
<path d="M269.784 47.7764L258.345 88.9191L281.224 75.7053L269.784 47.7764Z" fill="#CBACFF"/>
<path opacity="0.3" d="M269.784 47.7764L258.345 88.9191L281.224 75.7053L269.784 47.7764Z" fill="white"/>
<path d="M254.052 44.9475L242.6 98.0013L265.492 84.7875L254.052 44.9475Z" fill="#CBACFF"/>
<path d="M238.444 72.3928L227.004 107.009L249.884 93.8079L238.444 72.3928Z" fill="#CBACFF"/>
<path opacity="0.3" d="M238.444 72.3928L227.004 107.009L249.884 93.8079L238.444 72.3928Z" fill="black"/>
<path d="M229.176 61.2882L227.377 62.3305C227.166 62.4421 227.004 62.3305 227.004 62.0451V59.1045C227.006 58.9657 227.041 58.8292 227.106 58.7063C227.17 58.5834 227.263 58.4775 227.377 58.3973L229.176 57.3551C229.387 57.231 229.548 57.3551 229.548 57.6405V60.5686C229.546 60.7092 229.511 60.8475 229.447 60.9724C229.382 61.0973 229.289 61.2054 229.176 61.2882Z" fill="#CBACFF"/>
<path opacity="0.3" d="M229.176 61.2882L227.377 62.3305C227.166 62.4421 227.004 62.3305 227.004 62.0451V59.1045C227.006 58.9657 227.041 58.8292 227.106 58.7063C227.17 58.5834 227.263 58.4775 227.377 58.3973L229.176 57.3551C229.387 57.231 229.548 57.3551 229.548 57.6405V60.5686C229.546 60.7092 229.511 60.8475 229.447 60.9724C229.382 61.0973 229.289 61.2054 229.176 61.2882Z" fill="black"/>
<path d="M229.176 66.9459L227.377 67.9881C227.166 68.1122 227.004 67.9881 227.004 67.7027V64.7746C227.006 64.634 227.041 64.4958 227.106 64.3709C227.17 64.246 227.263 64.1378 227.377 64.055L229.176 62.9755C229.387 62.8639 229.548 62.9755 229.548 63.2609V66.2015C229.552 66.3466 229.52 66.4905 229.455 66.6204C229.39 66.7503 229.294 66.8621 229.176 66.9459ZM229.176 72.6036L227.377 73.6459C227.166 73.7699 227.004 73.6459 227.004 73.3729V70.4199C227.004 70.2807 227.038 70.1435 227.103 70.0202C227.168 69.897 227.262 69.7914 227.377 69.7127L229.176 68.6705C229.387 68.5464 229.548 68.6705 229.548 68.9435V71.884C229.55 72.0254 229.517 72.1651 229.452 72.2906C229.387 72.4162 229.292 72.5238 229.176 72.6036Z" fill="#CBACFF"/>
<path opacity="0.3" d="M229.176 72.6034L227.377 73.6456C227.166 73.7697 227.004 73.6456 227.004 73.3727V70.4197C227.004 70.2805 227.038 70.1433 227.103 70.02C227.168 69.8968 227.262 69.7912 227.377 69.7125L229.176 68.6703C229.387 68.5462 229.548 68.6703 229.548 68.9432V71.8838C229.55 72.0251 229.517 72.1648 229.452 72.2904C229.387 72.416 229.292 72.5235 229.176 72.6034Z" fill="white"/>
<path opacity="0.3" d="M267.154 371.807C267.054 371.807 266.956 371.782 266.869 371.732L230.118 350.516C230.033 350.464 229.962 350.391 229.912 350.304C229.862 350.217 229.835 350.119 229.833 350.019C229.834 349.921 229.86 349.824 229.91 349.739C229.961 349.654 230.032 349.584 230.118 349.536L276.026 323.009C276.11 322.96 276.207 322.934 276.305 322.934C276.403 322.934 276.499 322.96 276.584 323.009L313.347 344.225C313.432 344.276 313.503 344.349 313.551 344.436C313.599 344.523 313.623 344.622 313.62 344.721C313.622 344.819 313.597 344.916 313.549 345.001C313.501 345.086 313.431 345.157 313.347 345.205L267.44 371.732C267.353 371.782 267.254 371.807 267.154 371.807ZM231.533 350.019L267.154 370.591L311.97 344.721L276.323 324.15L231.533 350.019Z" fill="#CBACFF"/>
<path d="M267.155 365.938V201.627L239.585 185.709V350.019L267.155 365.938Z" fill="#CBACFF"/>
<path opacity="0.2" d="M267.155 365.938V201.627L239.585 185.709V350.019L267.155 365.938Z" fill="black"/>
<path d="M267.154 365.938L303.905 344.721L303.917 180.411L267.154 201.627V365.938Z" fill="#CBACFF"/>
<path d="M303.917 180.411L276.348 164.492L239.585 185.709L267.155 201.628L303.917 180.411Z" fill="#CBACFF"/>
<path opacity="0.25" d="M303.917 180.411L276.348 164.492L239.585 185.709L267.155 201.628L303.917 180.411Z" fill="white"/>
<path opacity="0.3" d="M303.917 180.411L266.782 200.883L254.722 194.146L239.585 185.709L254.474 194.617L266.671 201.888C266.373 206.032 266.298 349.126 266.348 353.258C266.38 357.496 266.653 361.73 267.167 365.938C267.677 361.73 267.946 357.496 267.973 353.258C267.973 349.25 267.973 206.293 267.676 202.285L303.917 180.411Z" fill="white"/>
<path opacity="0.3" d="M198.232 411.622C198.132 411.621 198.034 411.595 197.947 411.547L161.196 390.331C161.111 390.279 161.04 390.206 160.99 390.119C160.94 390.032 160.913 389.934 160.911 389.834C160.911 389.736 160.938 389.639 160.988 389.554C161.038 389.469 161.11 389.399 161.196 389.351L207.103 362.824C207.19 362.775 207.289 362.749 207.389 362.749C207.488 362.749 207.587 362.775 207.674 362.824L244.424 384.04C244.512 384.088 244.586 384.159 244.637 384.245C244.688 384.332 244.715 384.43 244.715 384.53C244.715 384.631 244.688 384.729 244.637 384.815C244.586 384.901 244.512 384.972 244.424 385.02L198.517 411.547C198.43 411.597 198.332 411.622 198.232 411.622ZM162.61 389.834L198.232 410.381L243.047 384.512L207.426 363.94L162.61 389.834Z" fill="#CBACFF"/>
<path d="M198.232 405.728V289.012L170.663 273.094V389.81L198.232 405.728Z" fill="#CBACFF"/>
<path opacity="0.1" d="M198.232 405.728V289.012L170.663 273.094V389.81L198.232 405.728Z" fill="white"/>
<path d="M198.232 405.728L234.995 384.499V267.796L198.232 289.012V405.728Z" fill="#CBACFF"/>
<path opacity="0.3" d="M198.232 405.728L234.995 384.499V267.796L198.232 289.012V405.728Z" fill="white"/>
<path d="M234.995 267.796L207.426 251.877L170.663 273.094L198.232 289.012L234.995 267.796Z" fill="#CBACFF"/>
<path opacity="0.55" d="M234.995 267.796L207.426 251.877L170.663 273.094L198.232 289.012L234.995 267.796Z" fill="white"/>
<path opacity="0.3" d="M198.716 289.682L234.995 267.796L197.859 288.268C193.852 285.997 189.832 283.764 185.812 281.531L170.663 273.094L185.551 281.99C189.621 284.471 193.678 286.878 197.76 289.273C197.636 293.566 197.5 324.882 197.462 329.175C197.425 333.468 197.4 375.082 197.462 379.45C197.524 383.817 197.562 388.209 197.698 392.589C197.835 396.969 197.996 401.349 198.269 405.728C198.554 401.349 198.728 396.969 198.84 392.589C198.951 388.209 199.051 383.829 199.075 379.45C199.1 375.07 199.075 333.542 199.075 329.175C198.976 325.019 198.84 293.839 198.716 289.682Z" fill="white"/>
<path opacity="0.3" d="M129.321 451.387C129.221 451.388 129.123 451.362 129.036 451.313L92.2731 430.096C92.1892 430.043 92.12 429.97 92.0723 429.883C92.0245 429.796 91.9997 429.699 92.0001 429.6C91.9981 429.502 92.0224 429.406 92.0704 429.32C92.1184 429.235 92.1884 429.165 92.2731 429.116L138.18 402.589C138.265 402.54 138.361 402.514 138.459 402.514C138.557 402.514 138.654 402.54 138.739 402.589L175.501 423.806C175.587 423.856 175.658 423.929 175.706 424.016C175.754 424.104 175.777 424.202 175.774 424.302C175.776 424.4 175.752 424.496 175.704 424.581C175.656 424.666 175.586 424.737 175.501 424.786L129.594 451.313C129.512 451.362 129.417 451.387 129.321 451.387ZM93.6875 429.6L129.321 450.171L174.137 424.302L138.503 403.73L93.6875 429.6Z" fill="#CBACFF"/>
<path d="M129.321 445.519L129.309 365.938L101.74 350.019L101.752 429.6L129.321 445.519Z" fill="#CBACFF"/>
<path opacity="0.45" d="M129.321 445.519L129.309 365.938L101.74 350.019L101.752 429.6L129.321 445.519Z" fill="black"/>
<path d="M129.322 445.519L166.072 424.29L166.084 344.721L129.309 365.938L129.322 445.519Z" fill="#CBACFF"/>
<path opacity="0.3" d="M129.322 445.519L166.072 424.29L166.084 344.721L129.309 365.938L129.322 445.519Z" fill="black"/>
<path d="M166.084 344.721L138.515 328.803L101.74 350.019L129.309 365.938L166.084 344.721Z" fill="#CBACFF"/>
<path opacity="0.15" d="M166.084 344.721L138.515 328.803L101.74 350.019L129.309 365.938L166.084 344.721Z" fill="black"/>
<path opacity="0.3" d="M166.084 344.721L128.949 365.181L116.889 358.456L101.74 350.019L116.629 358.915L128.825 366.199C128.54 368.68 128.465 435.183 128.515 437.702C128.542 440.328 128.816 442.945 129.334 445.519C129.841 442.943 130.111 440.327 130.14 437.702C130.14 435.307 130.14 368.978 129.867 366.583L166.084 344.721Z" fill="white"/>
<path opacity="0.3" d="M336.064 332.016C335.969 332.015 335.875 331.989 335.791 331.942L299.029 310.725C298.942 310.674 298.871 310.601 298.821 310.514C298.771 310.428 298.744 310.329 298.743 310.229C298.744 310.13 298.77 310.033 298.821 309.948C298.871 309.863 298.942 309.793 299.029 309.745L344.936 283.218C345.023 283.169 345.121 283.144 345.221 283.144C345.321 283.144 345.419 283.169 345.506 283.218L382.257 304.435C382.345 304.483 382.418 304.554 382.47 304.64C382.521 304.726 382.548 304.824 382.548 304.925C382.548 305.025 382.521 305.123 382.47 305.21C382.418 305.296 382.345 305.367 382.257 305.415L336.35 331.942C336.263 331.991 336.164 332.017 336.064 332.016ZM300.443 310.229L336.064 330.8L380.88 304.919L345.258 284.347L300.443 310.229Z" fill="#CBACFF"/>
<path d="M336.065 326.148V87.0707L308.496 71.1521L308.509 310.229L336.065 326.148Z" fill="#CBACFF"/>
<path opacity="0.3" d="M336.065 326.148V87.0707L308.496 71.1521L308.509 310.229L336.065 326.148Z" fill="white"/>
<path d="M336.064 326.148L372.827 304.931V65.854L336.064 87.0706V326.148Z" fill="#CBACFF"/>
<path opacity="0.55" d="M336.064 326.148L372.827 304.931V65.854L336.064 87.0706V326.148Z" fill="white"/>
<path d="M372.828 65.8539L345.259 49.9353L308.496 71.1518L336.065 87.0705L372.828 65.8539Z" fill="#CBACFF"/>
<path opacity="0.75" d="M372.828 65.8539L345.259 49.9353L308.496 71.1518L336.065 87.0705L372.828 65.8539Z" fill="white"/>
<path opacity="0.3" d="M336.549 87.7903L372.828 65.8914L335.693 86.3635C331.698 84.0929 327.665 81.8596 323.645 79.6263L308.496 71.1893L323.385 80.0978C327.455 82.5792 331.512 84.9739 335.606 87.3685C335.47 92.2321 335.333 97.0958 335.296 101.959C335.259 106.823 335.296 291.531 335.296 296.482C335.296 301.432 335.395 306.408 335.544 311.371C335.693 316.333 335.829 321.296 336.115 326.259C336.388 321.296 336.562 316.333 336.673 311.371C336.785 306.408 336.896 301.445 336.921 296.482C336.946 291.519 336.921 106.91 336.921 101.959C336.81 97.2075 336.686 92.4803 336.549 87.7903Z" fill="white"/>
<path d="M342.319 1.06264L311.437 18.892C310.58 19.4481 309.867 20.1988 309.356 21.0828C308.845 21.9669 308.551 22.9593 308.496 23.979V49.0294C308.496 50.9029 309.811 51.6598 311.437 50.7168L322.814 44.1409L325.866 49.414C326.002 49.6508 326.202 49.8434 326.444 49.9688C326.686 50.0942 326.959 50.1469 327.231 50.1207C327.502 50.0945 327.76 49.9905 327.974 49.8211C328.187 49.6517 328.347 49.4241 328.435 49.1659L332.008 38.8306L342.319 32.8875C343.175 32.3314 343.888 31.5807 344.399 30.6966C344.91 29.8125 345.205 28.8202 345.259 27.8005V2.76245C345.259 0.938575 343.944 0.119687 342.319 1.06264Z" fill="#FAFAFA"/>
<path d="M310.121 51.8087C309.739 51.808 309.363 51.7098 309.029 51.5233C308.617 51.2612 308.283 50.8918 308.065 50.4547C307.846 50.0175 307.75 49.5291 307.788 49.0418V23.979C307.84 22.8405 308.164 21.7312 308.734 20.7444C309.305 19.7576 310.103 18.9223 311.064 18.3089L341.933 0.479511C342.322 0.19511 342.784 0.0297786 343.265 0.0036577C343.746 -0.0224632 344.223 0.0917531 344.64 0.332395C345.057 0.573036 345.395 0.929715 345.613 1.35898C345.83 1.78824 345.919 2.27156 345.867 2.75005V27.8005C345.811 28.9367 345.487 30.0434 344.919 31.0293C344.352 32.0152 343.558 32.852 342.603 33.4706L332.504 39.2773L329.055 49.3272C328.928 49.7052 328.694 50.0381 328.381 50.2849C328.068 50.5318 327.69 50.6819 327.293 50.7168C326.895 50.762 326.493 50.6882 326.138 50.5049C325.782 50.3216 325.489 50.037 325.295 49.687L322.578 44.997L311.771 51.2007C311.287 51.55 310.716 51.7602 310.121 51.8087ZM342.653 1.65821L311.771 19.4627C311.018 19.9631 310.39 20.6313 309.938 21.4149C309.486 22.1985 309.222 23.0761 309.166 23.979V49.0294C309.092 49.2785 309.105 49.545 309.201 49.786C309.298 50.027 309.473 50.2284 309.698 50.3575C309.924 50.4867 310.186 50.536 310.443 50.4977C310.699 50.4593 310.936 50.3354 311.114 50.1461L323.062 43.2352L326.437 49.0791C326.504 49.2074 326.609 49.3119 326.738 49.3784C326.867 49.445 327.013 49.4704 327.156 49.4513C327.301 49.4433 327.441 49.3917 327.556 49.3031C327.671 49.2145 327.757 49.0932 327.801 48.955L331.462 38.3839L341.983 32.3167C342.731 31.8129 343.354 31.1434 343.801 30.3601C344.249 29.5769 344.51 28.701 344.564 27.8005V2.76246C344.642 2.51245 344.633 2.24319 344.538 1.99896C344.443 1.75473 344.268 1.55009 344.041 1.41869C343.815 1.28729 343.55 1.23696 343.291 1.27598C343.032 1.31501 342.794 1.44106 342.616 1.63339L342.653 1.65821Z" fill="#E0E0E0"/>
<path d="M325.022 35.6794C325.024 34.9287 325.195 34.1881 325.524 33.5133C325.853 32.8385 326.33 32.247 326.921 31.7835C327.926 31.2127 328.732 32.0564 328.732 33.5329C328.753 34.289 328.6 35.0398 328.286 35.7279C327.972 36.416 327.505 37.0233 326.921 37.5033C325.854 38.1609 325.022 37.2675 325.022 35.6794ZM325.246 16.4976L328.608 14.5869L327.938 28.9546L325.916 30.1209L325.246 16.4976Z" fill="#CBACFF"/>
</g>
<g opacity="0.5">
<path d="M40.9573 278.526C41.4826 277.29 42.8318 276.394 44.8712 276.147C47.1191 275.994 49.3711 276.377 51.4426 277.263C53.514 278.149 55.3459 279.514 56.788 281.245C58.0239 282.883 58.3226 284.479 57.8179 285.715L23.8803 374.416C23.2314 376.291 21.3157 377.64 18.3185 378.011C12.6124 378.701 5.18631 375.539 1.7359 370.945C-0.0768511 368.535 -0.416738 366.208 0.469039 364.446L40.9573 278.526Z" fill="#8F4BFF"/>
<path d="M56.7877 281.245C59.2596 284.531 57.9515 287.6 53.8728 288.095C51.637 288.242 49.3978 287.861 47.3365 286.982C45.2752 286.104 43.4496 284.752 42.0075 283.037C39.5356 279.752 40.8437 276.682 44.9224 276.188C47.1584 276.039 49.3981 276.419 51.4597 277.298C53.5213 278.177 55.3466 279.529 56.7877 281.245Z" fill="#CBACFF"/>
<path d="M57.6221 252.777C58.9826 252.685 60.3455 252.917 61.5988 253.454C62.8522 253.992 63.9602 254.818 64.8319 255.867C65.1654 256.221 65.3977 256.658 65.5046 257.133C65.6114 257.608 65.589 258.102 65.4396 258.565L54.4601 284.315C54.2296 284.744 53.8882 285.103 53.4715 285.355C53.0547 285.606 52.5781 285.742 52.0912 285.746C50.7306 285.839 49.3675 285.607 48.114 285.07C46.8605 284.533 45.7526 283.706 44.8814 282.656C44.548 282.3 44.3159 281.861 44.209 281.385C44.1022 280.908 44.1245 280.412 44.2737 279.948L55.2532 254.198C55.4867 253.773 55.8292 253.417 56.2454 253.167C56.6616 252.917 57.1368 252.783 57.6221 252.777Z" fill="#CBACFF"/>
<path opacity="0.2" d="M57.6221 252.777C58.9826 252.685 60.3455 252.917 61.5988 253.454C62.8522 253.992 63.9602 254.818 64.8319 255.867C65.1654 256.221 65.3977 256.658 65.5046 257.133C65.6114 257.608 65.589 258.102 65.4396 258.565L54.4601 284.315C54.2296 284.744 53.8882 285.103 53.4715 285.355C53.0547 285.606 52.5781 285.742 52.0912 285.746C50.7306 285.839 49.3675 285.607 48.114 285.07C46.8605 284.533 45.7526 283.706 44.8814 282.656C44.548 282.3 44.3159 281.861 44.209 281.385C44.1022 280.908 44.1245 280.412 44.2737 279.948L55.2532 254.198C55.4867 253.773 55.8292 253.417 56.2454 253.167C56.6616 252.917 57.1368 252.783 57.6221 252.777Z" fill="#5800EB"/>
<path opacity="0.2" d="M50.1958 266.094L50.958 266.537L51.0713 266.609L51.2155 266.692L51.3803 266.774C51.8638 267.061 52.3623 267.323 52.8737 267.557C53.49 267.869 54.1226 268.147 54.7689 268.391C55.3373 268.638 55.9183 268.854 56.5095 269.04C56.8092 269.148 57.1154 269.238 57.4262 269.308C57.761 269.435 58.1054 269.535 58.4562 269.607C58.8064 269.71 59.1257 269.792 59.4861 269.864C59.7323 269.935 59.9837 269.987 60.238 270.019H60.4955L65.4085 258.483C65.5579 258.02 65.5803 257.525 65.4734 257.051C65.3665 256.576 65.1343 256.139 64.8008 255.784C64.5019 255.399 64.1559 255.053 63.7708 254.754C60.7043 255.694 57.5303 256.237 54.326 256.371L50.1958 266.094Z" fill="#5800EB"/>
<path opacity="0.15" d="M49.826 287.796L14.0962 377.857C15.4881 378.09 16.9049 378.135 18.3088 377.991C21.306 377.62 23.2217 376.27 23.8706 374.396L57.7361 285.736C57.2109 286.982 55.8616 287.858 53.8222 288.105C52.4823 288.229 51.1309 288.125 49.826 287.796Z" fill="#5800EB"/>
<path d="M161.454 146.133C161.454 145.392 161.392 144.66 161.33 143.929C161.268 143.198 161.248 142.497 161.175 141.787C161.175 141.303 161.083 140.829 161.021 140.355C160.897 139.119 160.722 137.894 160.516 136.73C160.424 136.194 160.331 135.7 160.228 135.123C160.125 134.546 160.022 134.093 159.909 133.629C159.6 132.28 159.27 130.962 158.879 129.695C158.683 129.098 158.498 128.5 158.292 127.913C158.255 127.823 158.227 127.73 158.209 127.635C157.993 127.048 157.787 126.492 157.56 125.946C157.334 125.4 157.056 124.658 156.767 124.061C156.479 123.464 156.365 123.165 156.129 122.732C155.996 122.405 155.837 122.088 155.655 121.785C155.469 121.404 155.274 121.012 155.047 120.641C155.005 120.556 154.957 120.473 154.903 120.394C154.718 120.065 154.522 119.735 154.326 119.364C154.13 118.994 154.048 118.942 153.924 118.736C152.989 117.279 151.934 115.901 150.773 114.616L150.196 113.957C150.031 113.772 149.866 113.607 149.702 113.442C149.537 113.277 149.29 113.02 149.063 112.803C148.469 112.196 147.836 111.628 147.168 111.104C146.859 110.836 146.529 110.579 146.2 110.342C145.87 110.105 145.54 109.847 145.17 109.61C144.634 109.229 144.088 108.869 143.542 108.58L143.11 108.313L143.017 108.241L132.82 102.236L132.676 102.153C127.716 99.3829 122.115 97.9623 116.433 98.0336C107.967 98.0336 98.4089 100.804 88.274 106.644C53.4815 126.718 25.2705 175.529 25.2705 215.698C25.2705 235.731 32.2846 249.831 43.604 256.433H43.7173L53.9347 262.417L54.048 262.489L54.1922 262.572C54.254 262.572 54.3055 262.634 54.357 262.654C54.8405 262.941 55.339 263.203 55.8504 263.437C56.4684 263.746 57.107 264.024 57.7559 264.271C58.3185 264.521 58.8965 264.734 59.4862 264.91C59.7841 265.026 60.0906 265.119 60.4029 265.188C60.7377 265.315 61.0821 265.415 61.4329 265.487C61.7831 265.59 62.1023 265.672 62.4628 265.744C62.7102 265.81 62.9613 265.862 63.2147 265.899C63.6576 265.991 64.1211 266.084 64.5846 266.135C64.6859 266.177 64.7944 266.198 64.9039 266.197C65.4395 266.28 65.9957 266.362 66.5312 266.414C75.9143 267.444 86.8217 264.755 98.4604 258.019C133.263 237.935 161.474 189.063 161.474 148.904C161.505 148.039 161.484 147.091 161.454 146.133ZM46.6528 240.891C45.2053 235.519 44.4916 229.975 44.531 224.411C44.531 186.302 72.3403 138.089 105.351 119.055C110.171 116.203 115.373 114.053 120.801 112.669C123.398 112.014 126.063 111.669 128.742 111.64C130.09 111.633 131.437 111.736 132.769 111.948H132.882C139.628 119.931 140.617 132.723 140.617 139.552C140.617 177.661 112.808 225.874 79.8488 244.897C71.4648 249.738 63.3692 252.303 56.4787 252.303C55.0427 252.312 53.6121 252.128 52.2249 251.757C49.6492 248.566 47.753 244.882 46.6528 240.932V240.891Z" fill="#CBACFF"/>
<path opacity="0.25" d="M152.442 146.309C152.442 166.527 144.583 189.619 132.275 209.683C131.698 210.641 131.1 211.578 130.493 212.515C129.885 213.452 129.463 214.122 128.917 214.925C127.753 216.645 126.589 218.335 125.364 219.993C124.787 220.789 124.2 221.572 123.602 222.341C122.953 223.196 122.294 224.041 121.635 224.875C120.368 226.471 119.05 228.027 117.721 229.541C116.846 230.571 115.95 231.549 115.054 232.507C108.235 240.008 100.342 246.457 91.6319 251.644C90.0561 252.561 88.542 253.385 86.9558 254.136C81.9434 256.694 76.5109 258.327 70.9192 258.957C70.0397 259.046 69.1562 259.091 68.2721 259.091H66.9332C66.0942 259.059 65.2582 258.973 64.4303 258.833C64.0286 258.771 63.627 258.71 63.2459 258.617C62.8648 258.524 62.4734 258.452 62.0923 258.339C58.1889 257.344 54.7192 255.097 52.2148 251.943C53.599 252.31 55.0262 252.49 56.4583 252.478C63.3797 252.478 71.4445 249.934 79.8387 245.093C112.798 226.07 140.607 177.805 140.607 139.737C140.607 132.898 139.577 120.168 132.862 112.134H132.759C141.359 113.514 146.241 119.344 149.001 126.111C149.781 128.026 150.408 129.999 150.876 132.013C150.876 132.126 150.927 132.229 150.948 132.342C151.041 132.703 151.133 133.073 151.195 133.444C151.257 133.815 151.339 134.155 151.401 134.474C151.408 134.567 151.408 134.66 151.401 134.752C151.473 135.133 151.545 135.514 151.607 135.885C151.824 137.296 151.999 138.666 152.112 140.005C152.112 140.397 152.184 140.757 152.205 141.117C152.225 141.478 152.205 141.674 152.266 141.941V142.281C152.266 142.58 152.266 142.868 152.318 143.157C152.323 143.236 152.323 143.315 152.318 143.394V144.424C152.442 145.042 152.442 145.66 152.442 146.309Z" fill="#5800EB"/>
<path d="M53.0592 262.046L43.604 256.485C32.2743 249.862 25.2705 235.772 25.2705 215.77C25.2705 197.858 30.8839 178.217 40.1742 160.151L50.9477 166.331C41.678 184.355 35.4981 203.781 35.4981 221.702C35.4775 241.334 42.1518 255.238 53.0592 262.046Z" fill="#5800EB"/>
<path d="M143.151 108.282L143.059 108.21L132.862 102.215L132.718 102.123C127.758 99.3506 122.157 97.9299 116.475 98.0027C108.009 98.0027 98.4504 100.773 88.3155 106.613C69.0344 117.747 51.7823 137.729 40.2363 160.172L50.9584 166.475L50.7215 166.918C62.3087 144.733 79.4783 124.689 98.5534 112.628C115.816 101.752 132.203 101.597 143.646 108.508L143.151 108.282Z" fill="#8F4BFF"/>
<path opacity="0.1" d="M146.962 143.074C146.962 181.183 119.152 229.396 86.1419 248.43C81.3239 251.287 76.121 253.437 70.6923 254.816C68.0951 255.471 65.4295 255.817 62.7512 255.846C60.0014 255.879 57.2687 255.412 54.6865 254.466C50.5666 251.026 48.1152 246.061 46.6321 240.953C45.1846 235.58 44.4709 230.037 44.5103 224.473C44.5103 186.364 72.3196 138.151 105.33 119.117C110.15 116.265 115.353 114.115 120.78 112.731C123.377 112.076 126.043 111.731 128.721 111.701C131.47 111.666 134.202 112.13 136.786 113.071C140.906 116.501 143.357 121.486 144.84 126.584C146.288 131.96 147.002 137.507 146.962 143.074Z" fill="#CBACFF"/>
<path opacity="0.3" d="M62.772 255.867C65.4504 255.837 68.1159 255.492 70.7131 254.837C76.1419 253.458 81.3447 251.307 86.1627 248.451C119.122 229.417 146.983 181.163 146.983 143.095C147.022 137.531 146.308 131.988 144.861 126.615C143.378 121.527 140.916 116.552 136.837 113.123L136.446 112.989C136.086 112.855 135.725 112.742 135.344 112.628L134.695 112.453C134.324 112.35 133.933 112.278 133.552 112.196L132.872 112.062C139.629 120.044 140.617 132.826 140.617 139.665C140.617 177.774 112.808 225.997 79.849 245.021C71.4547 249.862 63.3694 252.406 56.4686 252.406C55.0365 252.418 53.6092 252.238 52.2251 251.87L52.2869 251.953C53.0403 252.857 53.8708 253.695 54.7691 254.456C57.3299 255.404 60.0411 255.882 62.772 255.867Z" fill="white"/>
</g>
</svg>
